<?xml version="1.0" standalone="no"?>
<svg xmlns:xlink="http://www.w3.org/1999/xlink" id="wave" style="transform:rotate(180deg); transition: 0.3s" viewBox="0 0 1440 490" version="1.1" xmlns="http://www.w3.org/2000/svg"><defs><linearGradient id="sw-gradient-0" x1="0" x2="0" y1="1" y2="0"><stop stop-color="rgba(0, 128, 96, 1)" offset="0%"/><stop stop-color="rgba(0, 128, 96, 1)" offset="100%"/></linearGradient></defs><path style="transform:translate(0, 0px); opacity:1" fill="url(#sw-gradient-0)" d="M0,0L80,32.7C160,65,320,131,480,130.7C640,131,800,65,960,32.7C1120,0,1280,0,1440,16.3C1600,33,1760,65,1920,130.7C2080,196,2240,294,2400,351.2C2560,408,2720,425,2880,392C3040,359,3200,278,3360,220.5C3520,163,3680,131,3840,98C4000,65,4160,33,4320,73.5C4480,114,4640,229,4800,269.5C4960,310,5120,278,5280,253.2C5440,229,5600,212,5760,187.8C5920,163,6080,131,6240,171.5C6400,212,6560,327,6720,367.5C6880,408,7040,376,7200,326.7C7360,278,7520,212,7680,196C7840,180,8000,212,8160,253.2C8320,294,8480,343,8640,318.5C8800,294,8960,196,9120,179.7C9280,163,9440,229,9600,245C9760,261,9920,229,10080,220.5C10240,212,10400,229,10560,236.8C10720,245,10880,245,11040,212.3C11200,180,11360,114,11440,81.7L11520,49L11520,490L11440,490C11360,490,11200,490,11040,490C10880,490,10720,490,10560,490C10400,490,10240,490,10080,490C9920,490,9760,490,9600,490C9440,490,9280,490,9120,490C8960,490,8800,490,8640,490C8480,490,8320,490,8160,490C8000,490,7840,490,7680,490C7520,490,7360,490,7200,490C7040,490,6880,490,6720,490C6560,490,6400,490,6240,490C6080,490,5920,490,5760,490C5600,490,5440,490,5280,490C5120,490,4960,490,4800,490C4640,490,4480,490,4320,490C4160,490,4000,490,3840,490C3680,490,3520,490,3360,490C3200,490,3040,490,2880,490C2720,490,2560,490,2400,490C2240,490,2080,490,1920,490C1760,490,1600,490,1440,490C1280,490,1120,490,960,490C800,490,640,490,480,490C320,490,160,490,80,490L0,490Z"/></svg>